<?xml version="1.0" encoding="utf-8"?>
<!-- Generator: Adobe Illustrator 22.0.1, SVG Export Plug-In . SVG Version: 6.00 Build 0)  -->
<svg version="1.1" id="Layer_1" xmlns="http://www.w3.org/2000/svg" xmlns:xlink="http://www.w3.org/1999/xlink" x="0px" y="0px"
	 viewBox="0 0 283.5 295.1" style="enable-background:new 0 0 283.5 295.1;" xml:space="preserve">
<style type="text/css">
	.st0{fill:#FFFFFF;}
	.st1{fill:#DF1566;}
</style>
<g>
	<rect x="32.7" y="48.9" class="st0" width="213" height="193.5"/>
	<polygon class="st1" points="141.7,-3.1 0,-3.1 0,251.8 141.7,294.9 283.5,251.8 283.5,-3.1 	"/>
	<g>
		<path class="st0" d="M41,64.1v44.2h25.9V64.1H41z M59.8,101.1H49V71.5h10.8V101.1z"/>
		<rect x="75" y="64.1" class="st0" width="11" height="44.2"/>
		<rect x="93.7" y="64.1" class="st0" width="21.6" height="5.4"/>
		<polygon class="st0" points="96.2,82.1 93.7,82.1 93.7,90.1 115.3,90.1 115.3,82 111.7,82 111.7,70.5 106.3,70.5 106.3,82 
			101.4,82 101.4,70.5 96.2,70.5 		"/>
		<polygon class="st0" points="120.1,64.1 120.1,89.4 126.6,89.4 126.6,78.9 130.5,78.9 130.5,89.4 138,89.4 138,64.1 130.5,64.1 
			130.5,70.6 127.2,70.6 127.2,64.1 		"/>
		<polygon class="st0" points="93.7,93.7 93.7,101.1 126.8,101.1 126.8,108.2 138,108.2 138,93.7 		"/>
		<rect x="145.6" y="64.1" class="st0" width="44.2" height="6.4"/>
		<polygon class="st0" points="189.8,72.9 189.8,78.7 156.1,78.7 156.1,86.3 189.8,86.3 189.8,92.9 171.9,92.9 171.9,100.9 
			189.8,100.9 189.8,108.2 145.6,108.2 145.6,101.1 163.6,101.1 163.6,93.7 145.6,93.7 145.6,72.9 		"/>
		<polygon class="st0" points="197.7,64.1 197.7,72.5 216.4,72.5 216.4,82.2 197.7,82.2 197.7,108.2 231.3,108.2 231.3,111.9 
			242.5,111.9 242.5,64.1 231.1,64.1 231.1,97.7 208.6,97.7 208.6,90.1 226.7,90.1 226.7,64.1 		"/>
		<polygon class="st0" points="41,123.7 41,172.5 88.9,172.5 88.9,157.7 63.1,157.7 63.1,137.5 88.9,137.5 88.9,123.7 		"/>
		<polygon class="st0" points="97.1,123.7 97.1,194 78.2,194 78.2,179.4 56.7,179.4 56.7,194 41,194 41,213.4 97.1,213.4 97.1,217 
			115.3,217 115.3,175.6 120.1,175.6 120.1,217 139,217 139,123.7 120.1,123.7 120.1,155.9 115.8,155.9 115.8,123.7 		"/>
		<path class="st0" d="M180.9,123.7h29.1v18.4h-19v25.6c0,0,8,23.3,21,25.6V217c0,0-27.6-11-32.5-28.1h-0.5
			c-4.9,17.1-32.5,28.1-32.5,28.1v-23.8c13-2.3,21-25.6,21-25.6v-25.6h-19v-18.4h29.1H180.9z"/>
		<rect x="220.1" y="123.7" class="st0" width="22.4" height="93.3"/>
	</g>
</g>
</svg>
