<?xml version="1.0" encoding="utf-8"?>
<!-- Generator: Adobe Illustrator 22.0.1, SVG Export Plug-In . SVG Version: 6.00 Build 0)  -->
<svg version="1.1" id="Layer_1" xmlns="http://www.w3.org/2000/svg" xmlns:xlink="http://www.w3.org/1999/xlink" x="0px" y="0px"
	 viewBox="0 0 283.5 423.8" style="enable-background:new 0 0 283.5 423.8;" xml:space="preserve">
<style type="text/css">
	.st0{fill:#FFFFFF;}
	.st1{fill:#DF1566;}
</style>
<g>
	<rect x="32.7" y="177.7" class="st0" width="213" height="193.5"/>
	<polygon class="st1" points="141.7,0 0,0 0,380.6 141.7,423.7 283.5,380.6 283.5,0 	"/>
	<g>
		<path class="st0" d="M41,192.8V237h25.9v-44.2H41z M59.8,229.9H49v-29.6h10.8V229.9z"/>
		<rect x="75" y="192.8" class="st0" width="11" height="44.2"/>
		<rect x="93.7" y="192.8" class="st0" width="21.6" height="5.4"/>
		<polygon class="st0" points="96.2,210.9 93.7,210.9 93.7,218.9 115.3,218.9 115.3,210.7 111.7,210.7 111.7,199.3 106.3,199.3 
			106.3,210.7 101.4,210.7 101.4,199.3 96.2,199.3 		"/>
		<polygon class="st0" points="120.1,192.8 120.1,218.2 126.6,218.2 126.6,207.7 130.5,207.7 130.5,218.2 138,218.2 138,192.8 
			130.5,192.8 130.5,199.4 127.2,199.4 127.2,192.8 		"/>
		<polygon class="st0" points="93.7,222.4 93.7,229.9 126.8,229.9 126.8,237 138,237 138,222.4 		"/>
		<rect x="145.6" y="192.8" class="st0" width="44.2" height="6.4"/>
		<polygon class="st0" points="189.8,201.7 189.8,207.5 156.1,207.5 156.1,215.1 189.8,215.1 189.8,221.7 171.9,221.7 171.9,229.7 
			189.8,229.7 189.8,237 145.6,237 145.6,229.9 163.6,229.9 163.6,222.4 145.6,222.4 145.6,201.7 		"/>
		<polygon class="st0" points="197.7,192.8 197.7,201.3 216.4,201.3 216.4,211 197.7,211 197.7,237 231.3,237 231.3,240.7 
			242.5,240.7 242.5,192.8 231.1,192.8 231.1,226.4 208.6,226.4 208.6,218.9 226.7,218.9 226.7,192.8 		"/>
		<polygon class="st0" points="41,252.5 41,301.3 88.9,301.3 88.9,286.5 63.1,286.5 63.1,266.3 88.9,266.3 88.9,252.5 		"/>
		<polygon class="st0" points="97.1,252.5 97.1,322.7 78.2,322.7 78.2,308.2 56.7,308.2 56.7,322.7 41,322.7 41,342.2 97.1,342.2 
			97.1,345.7 115.3,345.7 115.3,304.3 120.1,304.3 120.1,345.7 139,345.7 139,252.5 120.1,252.5 120.1,284.7 115.8,284.7 
			115.8,252.5 		"/>
		<path class="st0" d="M180.9,252.5h29.1v18.4h-19v25.6c0,0,8,23.3,21,25.6v23.8c0,0-27.6-11-32.5-28.1h-0.5
			c-4.9,17.1-32.5,28.1-32.5,28.1V322c13-2.3,21-25.6,21-25.6v-25.6h-19v-18.4h29.1H180.9z"/>
		<rect x="220.1" y="252.5" class="st0" width="22.4" height="93.3"/>
	</g>
</g>
</svg>
